<?xml version="1.0" standalone="no"?>
<!DOCTYPE svg PUBLIC "-//W3C//DTD SVG 1.1//EN" "http://www.w3.org/Graphics/SVG/1.1/DTD/svg11.dtd">
<svg width="80mm" height="100mm" viewBox="0 -100 80 100" xmlns="http://www.w3.org/2000/svg" version="1.1">
<title>OpenSCAD Model</title>
<path d="
M 0,-100 L 0,-0 L 80,-0 L 80,-100 z
M 70,-0.0999908 L 70,-10 L 60,-10 L 60,-0.0999908 L 50,-0.0999908 L 50,-10
 L 40,-10 L 40,-0.0999908 L 30,-0.0999908 L 30,-10 L 20,-10 L 20,-0.0999908
 L 10,-0.0999908 L 10,-10 L 0.0999908,-10 L 0.0999908,-20 L 10,-20 L 10,-30
 L 0.0999908,-30 L 0.0999908,-40 L 10,-40 L 10,-50 L 0.0999908,-50 L 0.0999908,-60
 L 10,-60 L 10,-70 L 0.0999908,-70 L 0.0999908,-80 L 10,-80 L 10,-90
 L 0.0999908,-90 L 0.0999908,-99.1 L 10,-99.1 L 10,-90 L 20,-90 L 20,-99.1
 L 30,-99.1 L 30,-90 L 40,-90 L 40,-99.1 L 50,-99.1 L 50,-90
 L 60,-90 L 60,-99.1 L 70,-99.1 L 70,-90 L 79.1,-90 L 79.1,-80
 L 70,-80 L 70,-70 L 79.1,-70 L 79.1,-60 L 70,-60 L 70,-50
 L 79.1,-50 L 79.1,-40 L 70,-40 L 70,-30 L 79.1,-30 L 79.1,-20
 L 70,-20 L 70,-10 L 79.1,-10 L 79.1,-0.0999908 z
M 70,-90 L 60,-90 L 60,-80 L 70,-80 z
M 30,-90 L 20,-90 L 20,-80 L 30,-80 z
M 50,-90 L 40,-90 L 40,-80 L 50,-80 z
M 20,-80 L 10,-80 L 10,-70 L 20,-70 z
M 60,-80 L 50,-80 L 50,-70 L 60,-70 z
M 40,-80 L 30,-80 L 30,-70 L 40,-70 z
M 50,-70 L 40,-70 L 40,-60 L 50,-60 z
M 70,-70 L 60,-70 L 60,-60 L 70,-60 z
M 30,-70 L 20,-70 L 20,-60 L 30,-60 z
M 60,-60 L 50,-60 L 50,-50 L 60,-50 z
M 40,-60 L 30,-60 L 30,-50 L 40,-50 z
M 20,-60 L 10,-60 L 10,-50 L 20,-50 z
M 50,-50 L 40,-50 L 40,-40 L 50,-40 z
M 70,-50 L 60,-50 L 60,-40 L 70,-40 z
M 30,-50 L 20,-50 L 20,-40 L 30,-40 z
M 60,-40 L 50,-40 L 50,-30 L 60,-30 z
M 20,-40 L 10,-40 L 10,-30 L 20,-30 z
M 40,-40 L 30,-40 L 30,-30 L 40,-30 z
M 50,-30 L 40,-30 L 40,-20 L 50,-20 z
M 30,-30 L 20,-30 L 20,-20 L 30,-20 z
M 70,-30 L 60,-30 L 60,-20 L 70,-20 z
M 20,-20 L 10,-20 L 10,-10 L 20,-10 z
M 40,-20 L 30,-20 L 30,-10 L 40,-10 z
M 60,-20 L 50,-20 L 50,-10 L 60,-10 z
" stroke="black" fill="black" stroke-width="0.5"/>
</svg>
