<?xml version="1.0" standalone="no"?>
<!DOCTYPE svg PUBLIC "-//W3C//DTD SVG 1.1//EN" "http://www.w3.org/Graphics/SVG/1.1/DTD/svg11.dtd">
<svg width="26mm" height="94mm" viewBox="-13 -47 26 94" xmlns="http://www.w3.org/2000/svg" version="1.1">
<title>OpenSCAD Model</title>
<path d="
M -12.4541,41.3236 L -11.6316,42.5894 L -10.3007,43.7419 L -8.51962,44.731 L -6.3662,45.5133 L -3.93452,46.0546
 L -1.33089,46.3313 L 1.33089,46.3313 L 3.93452,46.0546 L 6.3662,45.5133 L 8.51962,44.731 L 10.3007,43.7419
 L 11.6316,42.5894 L 12.4541,41.3236 L 12.7324,40 L 12.7324,-40 L 12.4541,-41.3236 L 11.6316,-42.5894
 L 10.3007,-43.7419 L 8.51962,-44.731 L 6.3662,-45.5133 L 3.93452,-46.0546 L 1.33089,-46.3313 L -1.33089,-46.3313
 L -3.93452,-46.0546 L -6.3662,-45.5133 L -8.51962,-44.731 L -10.3007,-43.7419 L -11.6316,-42.5894 L -12.4541,-41.3236
 L -12.7324,-40 L -12.7324,40 z
" stroke="black" fill="white" stroke-width="0.5"/>
<path d="
M 12.7324,-40 L 12.4542,-41.3236 L 11.6316,-42.5894 L 10.3007,-43.742 L 8.51964,-44.731 L 6.3662,-45.5133
 L 3.93453,-46.0546 L 1.3309,-46.3313 L -1.3309,-46.3313 L -3.93453,-46.0546 L -6.3662,-45.5133 L -8.51964,-44.731
 L -10.3007,-43.742 L -11.6316,-42.5894 L -12.4542,-41.3236 L -12.7324,-40 L -12.4542,-38.6764 L -11.6316,-37.4106
 L -10.3007,-36.258 L -8.51964,-35.269 L -6.3662,-34.4867 L -3.93453,-33.9454 L -1.3309,-33.6687 L 1.3309,-33.6687
 L 3.93453,-33.9454 L 6.3662,-34.4867 L 8.51964,-35.269 L 10.3007,-36.258 L 11.6316,-37.4106 L 12.4542,-38.6764
 z
" stroke="black" fill="white" stroke-width="0.5"/>
<path d="
M 10.3007,-26.2581 L 11.6316,-27.4106 L 12.4541,-28.6764 L 12.7324,-30 L 12.7324,-40 L 12.4541,-38.6764
 L 11.6316,-37.4106 L 10.3007,-36.2581 L 9.00316,-35.5375 L 9.00316,-25.5375 z
M 3.93452,-13.9454 L 6.3662,-14.4867 L 8.51962,-15.269 L 9.00316,-15.5375 L 9.00316,-25.5375 L 8.51962,-25.269
 L 6.3662,-24.4867 L 3.93452,-23.9454 L 1.33089,-23.6687 L 0,-23.6687 L 0,-33.6687 L -1.33089,-33.6687
 L -3.93452,-33.9454 L -6.3662,-34.4867 L -8.51962,-35.269 L -9.00316,-35.5375 L -9.00316,-25.5375 L -8.51962,-25.269
 L -6.3662,-24.4867 L -3.93452,-23.9454 L -1.33089,-23.6687 L 0,-23.6687 L 0,-13.6687 L 1.33089,-13.6687
 z
M -9.00316,-25.5375 L -10.3007,-26.2581 L -11.6316,-27.4106 L -12.4541,-28.6764 L -12.7324,-30 L -12.7324,-20
 L -12.4541,-18.6764 L -11.6316,-17.4106 L -10.3007,-16.2581 L -9.00316,-15.5375 z
M 10.3007,-6.25806 L 11.6316,-7.41064 L 12.4541,-8.67641 L 12.7324,-10 L 12.7324,-20 L 12.4541,-18.6764
 L 11.6316,-17.4106 L 10.3007,-16.2581 L 9.00316,-15.5375 L 9.00316,-5.53751 z
M 3.93452,6.05461 L 6.3662,5.51328 L 8.51962,4.731 L 9.00316,4.46249 L 9.00316,-5.53751 L 8.51962,-5.269
 L 6.3662,-4.48672 L 3.93452,-3.94539 L 1.33089,-3.66869 L 0,-3.66869 L 0,-13.6687 L -1.33089,-13.6687
 L -3.93452,-13.9454 L -6.3662,-14.4867 L -8.51962,-15.269 L -9.00316,-15.5375 L -9.00316,-5.53751 L -8.51962,-5.269
 L -6.3662,-4.48672 L -3.93452,-3.94539 L -1.33089,-3.66869 L 0,-3.66869 L 0,6.33131 L 1.33089,6.33131
 z
M -9.00316,-5.53751 L -10.3007,-6.25806 L -11.6316,-7.41064 L -12.4541,-8.67641 L -12.7324,-10 L -12.7324,-0
 L -12.4541,1.32359 L -11.6316,2.58936 L -10.3007,3.74194 L -9.00316,4.46249 z
M 10.3007,13.7419 L 11.6316,12.5894 L 12.4541,11.3236 L 12.7324,10 L 12.7324,-0 L 12.4541,1.32359
 L 11.6316,2.58936 L 10.3007,3.74194 L 9.00316,4.46249 L 9.00316,14.4625 z
M 3.93452,26.0546 L 6.3662,25.5133 L 8.51962,24.731 L 9.00316,24.4625 L 9.00316,14.4625 L 8.51962,14.731
 L 6.3662,15.5133 L 3.93452,16.0546 L 1.33089,16.3313 L 0,16.3313 L 0,6.33131 L -1.33089,6.33131
 L -3.93452,6.05461 L -6.3662,5.51328 L -8.51962,4.731 L -9.00316,4.46249 L -9.00316,14.4625 L -8.51962,14.731
 L -6.3662,15.5133 L -3.93452,16.0546 L -1.33089,16.3313 L 0,16.3313 L 0,26.3313 L 1.33089,26.3313
 z
M -9.00316,14.4625 L -10.3007,13.7419 L -11.6316,12.5894 L -12.4541,11.3236 L -12.7324,10 L -12.7324,20
 L -12.4541,21.3236 L -11.6316,22.5894 L -10.3007,23.7419 L -9.00316,24.4625 z
M 10.3007,33.7419 L 11.6316,32.5894 L 12.4541,31.3236 L 12.7324,30 L 12.7324,20 L 12.4541,21.3236
 L 11.6316,22.5894 L 10.3007,23.7419 L 9.00316,24.4625 L 9.00316,34.4625 z
M 3.93452,46.0546 L 6.3662,45.5133 L 8.51962,44.731 L 9.00316,44.4625 L 9.00316,34.4625 L 8.51962,34.731
 L 6.3662,35.5133 L 3.93452,36.0546 L 1.33089,36.3313 L 0,36.3313 L 0,26.3313 L -1.33089,26.3313
 L -3.93452,26.0546 L -6.3662,25.5133 L -8.51962,24.731 L -9.00316,24.4625 L -9.00316,34.4625 L -8.51962,34.731
 L -6.3662,35.5133 L -3.93452,36.0546 L -1.33089,36.3313 L 0,36.3313 L 0,46.3313 L 1.33089,46.3313
 z
M -9.00316,34.4625 L -10.3007,33.7419 L -11.6316,32.5894 L -12.4541,31.3236 L -12.7324,30 L -12.7324,40
 L -12.4541,41.3236 L -11.6316,42.5894 L -10.3007,43.7419 L -9.00316,44.4625 z
" stroke="black" fill="black" stroke-width="0"/>
</svg>

