<?xml version="1.0" encoding="utf-8"?>
<!-- Svg Vector Icons : http://www.onlinewebfonts.com/icon -->
<!DOCTYPE svg PUBLIC "-//W3C//DTD SVG 1.1//EN" "http://www.w3.org/Graphics/SVG/1.1/DTD/svg11.dtd">
<svg version="1.1" xmlns="http://www.w3.org/2000/svg" xmlns:xlink="http://www.w3.org/1999/xlink" x="0px" y="0px" viewBox="0 0 1000 1000" enable-background="new 0 0 1000 1000" xml:space="preserve">
<metadata> Svg Vector Icons : http://www.onlinewebfonts.com/icon </metadata>
<g><g><g><path d="M68.8,833.2h862.4c32.5,0,58.8-26.3,58.8-58.8c0-32.5-26.3-58.8-58.8-58.8H68.8c-32.5,0-58.8,26.3-58.8,58.8C10,806.9,36.3,833.2,68.8,833.2z"/><path d="M68.8,558.8h862.4c32.5,0,58.8-26.3,58.8-58.8c0-32.5-26.3-58.8-58.8-58.8H68.8C36.3,441.2,10,467.5,10,500C10,532.5,36.3,558.8,68.8,558.8z"/><path d="M68.8,284.4h862.4c32.5,0,58.8-26.3,58.8-58.8c0-32.5-26.3-58.8-58.8-58.8H68.8c-32.5,0-58.8,26.3-58.8,58.8C10,258.1,36.3,284.4,68.8,284.4z"/></g></g><g></g><g></g><g></g><g></g><g></g><g></g><g></g><g></g><g></g><g></g><g></g><g></g><g></g><g></g><g></g></g>
</svg>